<svg id="visual" viewBox="0 0 900 600" width="900" height="600" xmlns="http://www.w3.org/2000/svg" xmlns:xlink="http://www.w3.org/1999/xlink" version="1.1"><rect x="0" y="0" width="900" height="600" fill="#21009a"></rect><path d="M0 246L60 246L60 308L120 308L120 258L180 258L180 275L240 275L240 220L300 220L300 207L360 207L360 197L420 197L420 304L480 304L480 302L540 302L540 225L600 225L600 277L660 277L660 259L720 259L720 225L780 225L780 186L840 186L840 211L900 211L900 209L900 601L900 601L840 601L840 601L780 601L780 601L720 601L720 601L660 601L660 601L600 601L600 601L540 601L540 601L480 601L480 601L420 601L420 601L360 601L360 601L300 601L300 601L240 601L240 601L180 601L180 601L120 601L120 601L60 601L60 601L0 601Z" fill="#6500ed"></path><path d="M0 297L60 297L60 303L120 303L120 351L180 351L180 262L240 262L240 314L300 314L300 333L360 333L360 355L420 355L420 366L480 366L480 355L540 355L540 269L600 269L600 363L660 363L660 286L720 286L720 373L780 373L780 286L840 286L840 328L900 328L900 336L900 601L900 601L840 601L840 601L780 601L780 601L720 601L720 601L660 601L660 601L600 601L600 601L540 601L540 601L480 601L480 601L420 601L420 601L360 601L360 601L300 601L300 601L240 601L240 601L180 601L180 601L120 601L120 601L60 601L60 601L0 601Z" fill="#5605d6"></path><path d="M0 375L60 375L60 426L120 426L120 382L180 382L180 367L240 367L240 384L300 384L300 409L360 409L360 381L420 381L420 383L480 383L480 396L540 396L540 388L600 388L600 420L660 420L660 426L720 426L720 387L780 387L780 362L840 362L840 429L900 429L900 430L900 601L900 601L840 601L840 601L780 601L780 601L720 601L720 601L660 601L660 601L600 601L600 601L540 601L540 601L480 601L480 601L420 601L420 601L360 601L360 601L300 601L300 601L240 601L240 601L180 601L180 601L120 601L120 601L60 601L60 601L0 601Z" fill="#4707c0"></path><path d="M0 433L60 433L60 406L120 406L120 482L180 482L180 441L240 441L240 409L300 409L300 428L360 428L360 433L420 433L420 459L480 459L480 463L540 463L540 419L600 419L600 453L660 453L660 406L720 406L720 436L780 436L780 423L840 423L840 415L900 415L900 458L900 601L900 601L840 601L840 601L780 601L780 601L720 601L720 601L660 601L660 601L600 601L600 601L540 601L540 601L480 601L480 601L420 601L420 601L360 601L360 601L300 601L300 601L240 601L240 601L180 601L180 601L120 601L120 601L60 601L60 601L0 601Z" fill="#3a08aa"></path><path d="M0 530L60 530L60 517L120 517L120 506L180 506L180 486L240 486L240 514L300 514L300 490L360 490L360 557L420 557L420 556L480 556L480 484L540 484L540 550L600 550L600 549L660 549L660 519L720 519L720 517L780 517L780 484L840 484L840 503L900 503L900 540L900 601L900 601L840 601L840 601L780 601L780 601L720 601L720 601L660 601L660 601L600 601L600 601L540 601L540 601L480 601L480 601L420 601L420 601L360 601L360 601L300 601L300 601L240 601L240 601L180 601L180 601L120 601L120 601L60 601L60 601L0 601Z" fill="#2d0794"></path></svg>