<svg id="visual" viewBox="0 0 900 600" width="900" height="600" xmlns="http://www.w3.org/2000/svg" xmlns:xlink="http://www.w3.org/1999/xlink" version="1.1"><rect x="0" y="0" width="900" height="600" fill="#081851"></rect><path d="M0 359L21.5 354.3C43 349.7 86 340.3 128.8 349.2C171.7 358 214.3 385 257.2 394.5C300 404 343 396 385.8 395C428.7 394 471.3 400 514.2 400.2C557 400.3 600 394.7 642.8 387.7C685.7 380.7 728.3 372.3 771.2 361.7C814 351 857 338 878.5 331.5L900 325L900 601L878.5 601C857 601 814 601 771.2 601C728.3 601 685.7 601 642.8 601C600 601 557 601 514.2 601C471.3 601 428.7 601 385.8 601C343 601 300 601 257.2 601C214.3 601 171.7 601 128.8 601C86 601 43 601 21.5 601L0 601Z" fill="#69bcfa"></path><path d="M0 414L21.5 419.2C43 424.3 86 434.7 128.8 436.5C171.7 438.3 214.3 431.7 257.2 417.5C300 403.3 343 381.7 385.8 372.8C428.7 364 471.3 368 514.2 378.5C557 389 600 406 642.8 411.5C685.7 417 728.3 411 771.2 413.8C814 416.7 857 428.3 878.5 434.2L900 440L900 601L878.5 601C857 601 814 601 771.2 601C728.3 601 685.7 601 642.8 601C600 601 557 601 514.2 601C471.3 601 428.7 601 385.8 601C343 601 300 601 257.2 601C214.3 601 171.7 601 128.8 601C86 601 43 601 21.5 601L0 601Z" fill="#47a2f7"></path><path d="M0 469L21.5 464.3C43 459.7 86 450.3 128.8 441.2C171.7 432 214.3 423 257.2 428C300 433 343 452 385.8 456.2C428.7 460.3 471.3 449.7 514.2 448.3C557 447 600 455 642.8 455.5C685.7 456 728.3 449 771.2 453.8C814 458.7 857 475.3 878.5 483.7L900 492L900 601L878.5 601C857 601 814 601 771.2 601C728.3 601 685.7 601 642.8 601C600 601 557 601 514.2 601C471.3 601 428.7 601 385.8 601C343 601 300 601 257.2 601C214.3 601 171.7 601 128.8 601C86 601 43 601 21.5 601L0 601Z" fill="#3787f0"></path><path d="M0 471L21.5 480.2C43 489.3 86 507.7 128.8 509C171.7 510.3 214.3 494.7 257.2 495C300 495.3 343 511.7 385.8 509.7C428.7 507.7 471.3 487.3 514.2 481.7C557 476 600 485 642.8 493.3C685.7 501.7 728.3 509.3 771.2 506C814 502.7 857 488.3 878.5 481.2L900 474L900 601L878.5 601C857 601 814 601 771.2 601C728.3 601 685.7 601 642.8 601C600 601 557 601 514.2 601C471.3 601 428.7 601 385.8 601C343 601 300 601 257.2 601C214.3 601 171.7 601 128.8 601C86 601 43 601 21.5 601L0 601Z" fill="#4369e4"></path><path d="M0 563L21.5 563C43 563 86 563 128.8 557C171.7 551 214.3 539 257.2 533.7C300 528.3 343 529.7 385.8 530.8C428.7 532 471.3 533 514.2 536.3C557 539.7 600 545.3 642.8 544.2C685.7 543 728.3 535 771.2 528.2C814 521.3 857 515.7 878.5 512.8L900 510L900 601L878.5 601C857 601 814 601 771.2 601C728.3 601 685.7 601 642.8 601C600 601 557 601 514.2 601C471.3 601 428.7 601 385.8 601C343 601 300 601 257.2 601C214.3 601 171.7 601 128.8 601C86 601 43 601 21.5 601L0 601Z" fill="#5a45d0"></path></svg>