<svg id="visual" viewBox="0 0 900 450" width="900" height="450" xmlns="http://www.w3.org/2000/svg" xmlns:xlink="http://www.w3.org/1999/xlink" version="1.1"><path d="M773 450L755 450L755 409L746 409L746 368L800 368L800 327L791 327L791 286L827 286L827 245L746 245L746 205L764 205L764 164L845 164L845 123L755 123L755 82L818 82L818 41L791 41L791 0L900 0L900 41L900 41L900 82L900 82L900 123L900 123L900 164L900 164L900 205L900 205L900 245L900 245L900 286L900 286L900 327L900 327L900 368L900 368L900 409L900 409L900 450L900 450Z" fill="#2a21ad"></path><path d="M629 450L449 450L449 409L458 409L458 368L584 368L584 327L665 327L665 286L557 286L557 245L386 245L386 205L566 205L566 164L557 164L557 123L539 123L539 82L674 82L674 41L386 41L386 0L792 0L792 41L819 41L819 82L756 82L756 123L846 123L846 164L765 164L765 205L747 205L747 245L828 245L828 286L792 286L792 327L801 327L801 368L747 368L747 409L756 409L756 450L774 450Z" fill="#4c2eaf"></path><path d="M260 450L332 450L332 409L269 409L269 368L278 368L278 327L359 327L359 286L395 286L395 245L242 245L242 205L197 205L197 164L350 164L350 123L341 123L341 82L359 82L359 41L179 41L179 0L387 0L387 41L675 41L675 82L540 82L540 123L558 123L558 164L567 164L567 205L387 205L387 245L558 245L558 286L666 286L666 327L585 327L585 368L459 368L459 409L450 409L450 450L630 450Z" fill="#5b36b1"></path><path d="M134 450L188 450L188 409L152 409L152 368L125 368L125 327L206 327L206 286L233 286L233 245L179 245L179 205L89 205L89 164L233 164L233 123L170 123L170 82L251 82L251 41L107 41L107 0L180 0L180 41L360 41L360 82L342 82L342 123L351 123L351 164L198 164L198 205L243 205L243 245L396 245L396 286L360 286L360 327L279 327L279 368L270 368L270 409L333 409L333 450L261 450Z" fill="#4c2eaf"></path><path d="M0 450L0 450L0 409L0 409L0 368L0 368L0 327L0 327L0 286L0 286L0 245L0 245L0 205L0 205L0 164L0 164L0 123L0 123L0 82L0 82L0 41L0 41L0 0L108 0L108 41L252 41L252 82L171 82L171 123L234 123L234 164L90 164L90 205L180 205L180 245L234 245L234 286L207 286L207 327L126 327L126 368L153 368L153 409L189 409L189 450L135 450Z" fill="#2a21ad"></path></svg>